<?xml version="1.0" encoding="UTF-8" standalone="no"?>
<!-- Created with Inkscape (http://www.inkscape.org/) -->

<svg
   width="64"
   height="64"
   viewBox="0 0 16.933333 16.933333"
   version="1.1"
   id="svg5"
   xmlns="http://www.w3.org/2000/svg"
   xmlns:svg="http://www.w3.org/2000/svg">
  <defs
     id="defs2" />
  <g
     id="layer1">
    <path
       id="path115"
       style="fill:#2e00ff;stroke-width:0.264583"
       d="M 14.257891,8.4666662 A 5.791225,5.791225 0 0 1 8.4666662,14.257891 5.791225,5.791225 0 0 1 2.6754413,8.4666662 5.791225,5.791225 0 0 1 8.4666662,2.6754413 5.791225,5.791225 0 0 1 14.257891,8.4666662 Z" />
    <circle
       style="fill:#e6e6e6;stroke-width:0.22971"
       id="path115-3"
       cx="8.4666662"
       cy="8.4666662"
       r="5.0279117" />
    <path
       id="path372"
       style="fill:#ffcc00;stroke:#000000;stroke-width:0.588193"
       transform="matrix(0.86985141,0,0,0.86985141,0.97153807,0.86470455)"
       d="M 12.667561,12.866685 9.0755149,11.648587 6.0356891,13.917071 6.0841661,10.124419 2.9873521,7.9343726 6.6093587,6.808483 7.7352482,3.1864765 9.9252944,6.2832904 13.717946,6.2348134 11.449463,9.2746393 Z" />
  </g>
</svg>
